<svg preserveAspectRatio="none" overflow="visible" style="display: block;" width="125.139" height="26.9653" viewBox="0 0 125.139 26.9653" fill="none" xmlns="http://www.w3.org/2000/svg">
<g id="img-magicoreai">
<path id="Union" d="M37.8751 10.3354C38.7871 10.3354 39.5894 10.5549 40.2813 10.9946C40.7979 11.3155 41.2302 11.7417 41.5792 12.2719V10.5707H44.5274V21.1703C44.5274 22.505 44.2602 23.6045 43.7257 24.4682C43.2067 25.3319 42.5067 25.9604 41.6261 26.353C40.7454 26.7613 39.786 26.9653 38.7481 26.9653C37.4901 26.9653 36.4361 26.7612 35.587 26.353C34.738 25.9604 34.0859 25.3947 33.63 24.6567C33.1897 23.9343 32.938 23.1018 32.8751 22.1596H35.8702C35.8859 22.6307 36.0122 23.032 36.2481 23.3618C36.484 23.7071 36.8062 23.9742 37.2149 24.1625C37.6237 24.3509 38.1032 24.4447 38.6534 24.4448C39.1566 24.4448 39.6291 24.3268 40.0694 24.0912C40.5253 23.8557 40.8871 23.4949 41.1544 23.0082C41.4374 22.5214 41.5792 21.9084 41.5792 21.1703V19.5151C41.2301 20.0457 40.7982 20.4722 40.2813 20.7934C39.5894 21.2174 38.7872 21.4301 37.8751 21.4301C36.9789 21.4301 36.1301 21.2173 35.3282 20.7934C34.5262 20.3694 33.8811 19.7496 33.3936 18.933C32.9061 18.1007 32.6622 17.0875 32.6622 15.894C32.6622 14.685 32.9063 13.6724 33.3936 12.8559C33.8811 12.0236 34.5262 11.3951 35.3282 10.9711C36.13 10.5473 36.9789 10.3354 37.8751 10.3354ZM62.0343 4.58734C63.2449 4.58736 64.2432 4.7373 65.0294 5.03558C65.8314 5.33394 66.571 5.74972 67.2471 6.28363V10.0766C66.8855 9.6683 66.4525 9.29122 65.9493 8.94574C65.462 8.60041 64.9119 8.32562 64.2989 8.12152C63.6856 7.91738 62.9855 7.81489 62.1993 7.81488C61.2559 7.81488 60.383 8.0345 59.5811 8.47406C58.7791 8.89806 58.1263 9.51106 57.6231 10.3119C57.1357 11.1127 56.8917 12.0625 56.8917 13.1616C56.8917 14.2451 57.1356 15.1956 57.6231 16.0121C58.1263 16.813 58.7791 17.4338 59.5811 17.8735C60.383 18.2973 61.2559 18.5092 62.1993 18.5092C62.9855 18.5092 63.6856 18.4067 64.2989 18.2026C64.9119 17.9985 65.462 17.7237 65.9493 17.3784C66.4525 17.0329 66.8855 16.6558 67.2471 16.2475V20.0405C66.571 20.5744 65.8314 20.9901 65.0294 21.2885C64.2432 21.5868 63.2449 21.7358 62.0343 21.7358C60.7762 21.7358 59.6046 21.5317 58.5196 21.1235C57.4503 20.7152 56.514 20.1264 55.712 19.3569C54.9259 18.5875 54.3124 17.6842 53.8721 16.6479C53.4477 15.5959 53.2354 14.4334 53.2354 13.1616C53.2355 11.8899 53.4477 10.7359 53.8721 9.69964C54.3124 8.64765 54.9259 7.73663 55.712 6.96722C56.514 6.19774 57.4503 5.60892 58.5196 5.20062C59.6046 4.79234 60.7762 4.58734 62.0343 4.58734ZM25.7628 10.2875C26.6906 10.2875 27.5169 10.421 28.2403 10.6879C28.9636 10.9549 29.5297 11.3484 29.9386 11.8666C30.3472 12.3691 30.5518 12.9891 30.5518 13.727V21.4057H27.6036V19.9262C27.54 20.0309 27.4705 20.1323 27.3907 20.228C27.0133 20.6991 26.5177 21.053 25.9044 21.2885C25.3069 21.524 24.678 21.642 24.0177 21.642C23.3416 21.642 22.7127 21.5085 22.1309 21.2416C21.5491 20.9747 21.0766 20.5899 20.7149 20.0873C20.369 19.5691 20.1964 18.9406 20.1964 18.2026C20.1964 17.1505 20.5657 16.3179 21.3048 15.7055C22.0439 15.0931 23.0901 14.7866 24.4425 14.7866C25.1343 14.7866 25.74 14.8581 26.2589 14.9994C26.7934 15.1408 27.242 15.3129 27.6036 15.517V14.3627C27.6036 14.0645 27.5563 13.8129 27.462 13.6088C27.3677 13.3892 27.2179 13.2091 27.0137 13.0678C26.825 12.9265 26.5965 12.824 26.3292 12.7612C26.0619 12.6984 25.7629 12.6674 25.4327 12.6674C24.9297 12.6674 24.4501 12.7216 23.9942 12.8315C23.5382 12.9414 23.1448 13.0758 22.8145 13.2328C22.4845 13.3898 22.2403 13.5233 22.0831 13.6332L20.9512 11.56C21.5174 11.2616 22.2097 10.9793 23.0274 10.7123C23.845 10.4298 24.7566 10.2876 25.7628 10.2875ZM75.6036 10.3354C76.7515 10.3354 77.7737 10.5704 78.67 11.0414C79.5821 11.5126 80.2975 12.1729 80.8165 13.0209C81.351 13.8689 81.6182 14.8582 81.6182 15.9887C81.6182 17.1036 81.3511 18.0928 80.8165 18.9565C80.2975 19.8045 79.5821 20.4639 78.67 20.935C77.7736 21.4061 76.7515 21.642 75.6036 21.642C74.4557 21.642 73.4258 21.4061 72.5137 20.935C71.6174 20.4639 70.9019 19.8044 70.3673 18.9565C69.8483 18.0928 69.589 17.1036 69.5889 15.9887C69.5889 14.8581 69.8484 13.8689 70.3673 13.0209C70.9019 12.1729 71.6174 11.5126 72.5137 11.0414C73.4257 10.5705 74.4558 10.3354 75.6036 10.3354ZM97.8985 10.3354C99.0936 10.3354 100.108 10.5549 100.941 10.9946C101.791 11.4186 102.436 12.047 102.876 12.8793C103.316 13.6959 103.536 14.6851 103.536 15.8471C103.536 15.9883 103.528 16.1375 103.513 16.2944C103.513 16.4512 103.505 16.5771 103.489 16.6713H95.1339C95.1814 17.0764 95.2694 17.4379 95.3985 17.7553C95.6187 18.2577 95.9408 18.6427 96.3653 18.9096C96.7898 19.1765 97.301 19.31 97.8985 19.31C98.5747 19.31 99.1494 19.1843 99.6212 18.933C100.108 18.6661 100.509 18.2733 100.823 17.7553L103.489 18.5795C102.923 19.6003 102.168 20.3699 101.225 20.8881C100.297 21.3906 99.1803 21.642 97.8751 21.642C96.6957 21.642 95.6658 21.4061 94.7852 20.935C93.9046 20.4639 93.22 19.8122 92.7325 18.9799C92.2609 18.132 92.0255 17.1349 92.0255 15.9887C92.0255 14.8266 92.2607 13.8288 92.7325 12.9965C93.22 12.1486 93.9047 11.4968 94.7852 11.0414C95.6657 10.5705 96.7036 10.3354 97.8985 10.3354ZM89.5011 10.3119C89.8941 10.3119 90.2636 10.3826 90.6094 10.5239C90.9711 10.6652 91.2623 10.877 91.4825 11.1596L90.0909 13.7504C89.8865 13.5621 89.6743 13.4208 89.4542 13.3266C89.2498 13.2167 88.9903 13.1616 88.6759 13.1616C88.2984 13.1616 87.9754 13.264 87.7081 13.4682C87.441 13.6723 87.2363 13.9626 87.0948 14.3393C86.969 14.7005 86.9063 15.1404 86.9063 15.6586V21.4067H83.9112V10.5707H86.9063V11.9155C87.1744 11.5207 87.4881 11.1898 87.8497 10.9243C88.3843 10.516 88.935 10.312 89.5011 10.3119ZM119.928 21.4067H116.107L114.366 17.6606H108.704L106.979 21.4067H103.181L111.555 3.9516L119.928 21.4067ZM125.139 21.4067H121.719V4.91742H125.139V21.4067ZM18.7296 21.4057H15.2149L14.1534 12.1489L9.36433 19.8754L4.57625 12.1489L3.51472 21.4057H7.43037e-05L2.4532 4.0932L9.36433 14.7397L16.2764 4.0932L18.7296 21.4057ZM50.6534 21.4057H47.6807V10.5707H50.6534V21.4057ZM25.2911 16.5776C24.8195 16.5776 24.4345 16.6405 24.1358 16.766C23.837 16.876 23.6162 17.0403 23.4747 17.2602C23.3332 17.4643 23.2628 17.7236 23.2628 18.0375C23.2628 18.3516 23.3419 18.6262 23.4991 18.8618C23.6564 19.0816 23.8685 19.2547 24.1358 19.3803C24.4188 19.4902 24.7256 19.5453 25.0557 19.5453C25.5274 19.5453 25.9518 19.4506 26.3292 19.2621C26.7066 19.058 27.0132 18.7756 27.2491 18.4145C27.485 18.0376 27.6036 17.5899 27.6036 17.0717V17.061C27.3934 16.964 27.1732 16.8807 26.9425 16.8129C26.4236 16.6559 25.8729 16.5776 25.2911 16.5776ZM75.6036 12.9028C75.0689 12.9028 74.581 13.0285 74.1407 13.2797C73.7006 13.5309 73.3464 13.8918 73.0792 14.3627C72.8276 14.8338 72.7022 15.3763 72.7022 15.9887C72.7022 16.6009 72.8277 17.1427 73.0792 17.6137C73.3465 18.0691 73.7005 18.4307 74.1407 18.6977C74.581 18.9489 75.0689 19.0746 75.6036 19.0746C76.1382 19.0746 76.6262 18.9489 77.0665 18.6977C77.5067 18.4307 77.852 18.069 78.1036 17.6137C78.3709 17.1426 78.5049 16.6011 78.505 15.9887C78.505 15.3763 78.3709 14.8338 78.1036 14.3627C77.8521 13.892 77.5065 13.5309 77.0665 13.2797C76.6262 13.0285 76.1382 12.9028 75.6036 12.9028ZM38.7716 12.8559C38.2527 12.8559 37.7656 12.9739 37.3096 13.2094C36.8536 13.445 36.492 13.7902 36.2247 14.2455C35.9574 14.6852 35.8234 15.2346 35.8233 15.894C35.8233 16.5378 35.9573 17.088 36.2247 17.5434C36.492 17.9829 36.8537 18.3206 37.3096 18.5561C37.7655 18.7915 38.2528 18.9096 38.7716 18.9096C39.2276 18.9096 39.6683 18.7994 40.0928 18.5795C40.5331 18.344 40.8871 18.0065 41.1544 17.5668C41.4374 17.1114 41.5792 16.5535 41.5792 15.894C41.5791 15.3917 41.5 14.9524 41.3428 14.5756C41.1856 14.1988 40.9656 13.8845 40.6827 13.6332C40.4154 13.382 40.1164 13.1934 39.7862 13.0678C39.456 12.9265 39.1175 12.8559 38.7716 12.8559ZM109.488 14.9994H113.604L111.555 10.2641L109.488 14.9994ZM97.8516 12.4789C97.2541 12.4789 96.7507 12.6124 96.3419 12.8793C95.9488 13.1306 95.6421 13.5155 95.4219 14.0336C95.3301 14.2595 95.2579 14.5109 95.2042 14.7875H100.246C100.216 14.3736 100.119 14.0122 99.9512 13.7035C99.7625 13.3267 99.4868 13.0279 99.1251 12.808C98.7635 12.5884 98.3389 12.4789 97.8516 12.4789ZM49.1905 4.65863C49.6937 4.65863 50.119 4.82299 50.4649 5.15277C50.8264 5.46676 51.0068 5.87508 51.0069 6.37738C51.0069 6.86419 50.8266 7.27319 50.4649 7.60296C50.119 7.93272 49.6937 8.0971 49.1905 8.0971C48.6876 8.09703 48.2552 7.93251 47.8936 7.60296C47.5319 7.27319 47.3507 6.86419 47.3507 6.37738C47.3507 5.875 47.532 5.46678 47.8936 5.15277C48.2552 4.82312 48.6875 4.6587 49.1905 4.65863Z" fill="white"/>
</g>
</svg>
